<?xml version="1.0" encoding="UTF-8"?>
<svg width="32px" height="34px" viewBox="0 0 32 34" version="1.1" xmlns="http://www.w3.org/2000/svg" xmlns:xlink="http://www.w3.org/1999/xlink">
    <!-- Generator: Sketch 49.3 (51167) - http://www.bohemiancoding.com/sketch -->
    <title>Fill 1</title>
    <desc>Created with Sketch.</desc>
    <defs></defs>
    <g id="Page-1" stroke="none" stroke-width="1" fill="current" fill-rule="evenodd">
        <g id="Components" transform="translate(-702.000000, -1464.000000)" fill="current">
            <path d="M732,1484.59196 C732,1485.72829 731.082311,1486.65339 729.954816,1486.65339 L715.855856,1486.65339 L715.099099,1486.65339 L714.544144,1487.16777 L708.24754,1493 L708.226195,1488.59942 L708.216493,1486.65339 L706.285793,1486.65339 L706.045184,1486.65339 C704.91781,1486.65339 704,1485.72829 704,1484.59196 L704,1468.06143 C704.00194,1466.9251 704.91781,1466 706.045184,1466 L729.954816,1466 C731.08219,1466 732,1466.9251 732,1468.06143 L732,1484.59196 Z M729.999407,1464 L705.998524,1464 C703.791837,1464 702,1465.83423 702,1468.09067 L702,1484.92338 C702,1487.17983 703.793785,1489.01406 706.000472,1489.01406 L706.240033,1489.01406 L706.282881,1498 L715.847787,1489.01406 L729.999407,1489.01406 L729.999407,1489.01207 C732.206093,1489.01207 734,1487.17784 734,1484.92139 L734,1468.09067 C733.997931,1465.83423 732.206093,1464 729.999407,1464 Z" id="Fill-1"></path>
        </g>
    </g>
</svg>