<?xml version="1.0" encoding="UTF-8"?>
<svg width="32px" height="28px" viewBox="0 0 32 28" version="1.1" xmlns="http://www.w3.org/2000/svg" xmlns:xlink="http://www.w3.org/1999/xlink">
    <!-- Generator: Sketch 52.1 (67048) - http://www.bohemiancoding.com/sketch -->
    <title>Combined Shape</title>
    <desc>Created with Sketch.</desc>
    <g id="Page-1" stroke="none" stroke-width="1" fill="none" fill-rule="evenodd">
        <path d="M29.4152078,2.5994695 C31.0908452,4.26718109 32.0066794,6.48179407 31.9999633,8.83819629 C31.9999633,11.1945985 31.0772773,13.4092115 29.4017077,15.0769231 L16.6343002,27.7366771 C16.4578495,27.9122257 16.220411,28 15.9898243,28 C15.7591698,28 15.5217313,27.9054738 15.3453484,27.7299252 L2.60507672,15.0499156 C0.929439285,13.382204 3.71470307e-05,11.1743429 3.71470307e-05,8.81794068 C-0.00674681018,6.46153846 0.915871371,4.24692549 2.5915088,2.57921389 C4.26036228,0.91825416 6.48550024,0 8.84631735,0 C11.2138506,0 13.4458403,0.925006028 15.1214778,2.59271763 L16.0101762,3.47721244 L16.8853067,2.60622136 C18.5608762,0.938509766 20.786082,0.0202556065 23.1536153,0.0202556065 C25.5212842,0.0202556065 27.7396382,0.931757897 29.4152078,2.5994695 Z M28.1127558,13.7873161 C29.4424115,12.4639498 30.175011,10.7084639 30.1682949,8.83819629 C30.1682949,6.96792862 29.4424115,5.21244273 28.1127558,3.88907644 C26.7830324,2.57246202 25.0192035,1.84326019 23.1468992,1.84326019 C21.2744591,1.84326019 19.5039141,2.57246202 18.1742585,3.89582831 L16.6546521,5.40824693 C16.2951024,5.76609597 15.718466,5.76609597 15.3589163,5.40824693 L13.8256741,3.88232457 C12.4960863,2.55895828 10.7254735,1.82975645 8.84631735,1.82975645 C6.97387732,1.82975645 5.21004845,2.55895828 3.88717679,3.8755727 C2.55758902,5.19218712 1.83170559,6.94767302 1.83170559,8.81794068 C1.83170559,10.6882083 2.56430513,12.4436942 3.89402859,13.7670605 L15.9898243,25.8056426 L28.1127558,13.7873161 Z" id="Combined-Shape" fill="#999999" fill-rule="nonzero"></path>
    </g>
</svg>