<?xml version="1.0" encoding="UTF-8"?>
<svg width="32px" height="31px" viewBox="0 0 32 31" version="1.1" xmlns="http://www.w3.org/2000/svg" xmlns:xlink="http://www.w3.org/1999/xlink">
    <!-- Generator: Sketch 55.1 (78136) - https://sketchapp.com -->
    <title>Fill-1</title>
    <desc>Created with Sketch.</desc>
    <g id="Page-1" stroke="none" stroke-width="1" fill="none" fill-rule="evenodd">
        <path d="M6.71966541,13.6057121 L6.71966541,28.2326439 L6.71316041,28.2326439 L6.71316041,28.2782671 L1.88645011,28.2782671 L1.88645011,13.6057121 L6.71966541,13.6057121 Z M19.8338113,12.1240973 L27.4511017,12.1240973 C28.0625067,12.1240973 28.6646745,12.3534539 29.1472155,12.7702641 C29.8749299,13.3951531 30.2278912,14.3879003 30.0683235,15.3611319 L28.3248533,26.2747585 L28.3175027,26.3132021 C28.2030797,27.2411368 27.8516796,27.9464377 27.273255,28.4093933 C26.689236,28.8767873 25.8561406,29.1137804 24.7970615,29.1137804 L11.2796707,29.1137804 C9.9756783,29.1137804 8.83938484,28.1376116 8.63701427,26.8454739 C8.63018402,26.7971093 8.61801967,26.750768 8.60611552,26.708604 L8.60611552,14.3555919 L8.80744528,14.3089896 C8.81707268,14.3077495 8.82546414,14.3059219 8.83248954,14.3040944 L8.86781169,14.2952178 C9.14577035,14.21337 10.6064031,13.7519808 12.0698331,12.7075403 C14.2382099,11.1639196 15.3843259,9.08887567 15.3843259,6.70673937 L15.3843259,1.93248054 C16.0132294,1.84612916 17.0481099,1.8196298 17.7987219,2.38016317 C18.5231838,2.91608999 18.8905862,3.94793351 18.8905862,5.44704047 L18.8905862,11.1776914 C18.8905862,11.6995201 19.3136714,12.1240973 19.8338113,12.1240973 Z M30.3731478,11.3340768 C29.5477283,10.627079 28.5100507,10.2378124 27.4511017,10.2378124 L20.7770363,10.2378124 L20.7770363,5.44704047 C20.7770363,3.31005593 20.1483931,1.76375921 18.9088652,0.851162839 C16.9189856,-0.617006438 14.1731599,0.257994777 14.1508478,0.265892371 C13.7563845,0.392580224 13.4913708,0.754042012 13.4913708,1.1653696 L13.4913708,6.70673937 C13.4913708,8.45896096 12.6541122,9.94932182 11.0026878,11.1365064 C9.9670917,11.8825354 8.91087479,12.2878582 8.37343166,12.4630412 L8.2842481,12.4864076 C7.95353388,11.9998244 7.41609075,11.7129003 6.82374541,11.7129003 L1.76936011,11.7129003 C0.793740148,11.7129003 0,12.5093172 0,13.4882272 L0,28.3958173 C0,29.3747273 0.793740148,30.171079 1.76936011,30.171079 L6.83675541,30.171079 C7.30374939,30.171079 7.74628457,29.9881289 8.07595799,29.6639359 C8.93546369,30.5150486 10.0956956,31 11.2861757,31 L24.8035665,31 C27.880887,31 29.8459826,29.3777297 30.1941302,26.5549599 L31.9441705,15.6604572 C32.1942878,14.0326391 31.592315,12.3748623 30.3731478,11.3340768 Z" id="Fill-1" fill="#CBCBCB" fill-rule="nonzero"></path>
    </g>
</svg>